<svg version="1.0" xmlns="http://www.w3.org/2000/svg"
 width="284.000000pt" height="284.000000pt" viewBox="0 0 284.000000 284.000000"
 preserveAspectRatio="xMidYMid meet">
<metadata>
Created by potrace 1.14, written by Peter Selinger 2001-2017
</metadata>
<g transform="translate(0.000000,284.000000) scale(0.100000,-0.100000)"
fill="#000000" stroke="none">
<path d="M2507 1672 c-37 -13 -53 -26 -68 -52 -59 -109 -226 -460 -221 -463 4
-1 33 -3 65 -2 l59 0 60 130 c33 72 73 159 90 195 l29 65 44 -88 c68 -136 69
-127 -16 -125 -56 1 -74 -1 -77 -13 -2 -7 -10 -27 -17 -44 -8 -16 -13 -34 -12
-40 1 -6 48 -10 117 -10 122 0 122 0 143 -59 2 -7 137 -18 137 -11 0 1 -38 81
-83 176 -46 96 -103 216 -127 267 -29 60 -49 92 -59 91 -9 0 -38 -8 -64 -17z"/>
<path d="M899 1678 c-1 -4 -1 -501 0 -513 1 -6 83 -10 227 -10 l227 0 12 35
c7 19 15 45 19 58 l8 23 -134 -1 c-73 -1 -156 -1 -185 -1 l-52 1 0 188 c1 103
0 195 0 205 -1 14 -11 17 -61 17 -33 0 -60 -1 -61 -2z"/>
<path d="M1444 1418 l1 -263 60 0 60 0 2 263 1 262 -63 0 -63 0 2 -262z"/>
<path d="M1745 1661 c-92 -42 -125 -133 -77 -214 39 -68 94 -87 252 -86 121 1
138 -4 146 -38 12 -48 -6 -53 -206 -56 -115 -1 -185 -6 -185 -12 -1 -5 -7 -27
-14 -47 -7 -21 -10 -41 -7 -46 2 -4 98 -7 213 -7 198 1 210 2 250 24 98 55
110 181 24 254 -39 32 -73 39 -214 41 -125 3 -147 8 -147 40 1 49 8 51 196 53
97 1 178 4 179 5 2 2 10 27 18 56 l16 52 -202 0 c-175 0 -207 -3 -242 -19z"/>
<path d="M248 1663 c-25 -6 -42 -56 -29 -82 18 -33 58 -37 94 -10 28 21 43 24
124 24 79 0 99 -3 138 -25 47 -26 66 -23 88 12 14 21 0 65 -24 78 -16 9 -29 7
-62 -11 -35 -19 -58 -23 -137 -23 -81 -1 -100 2 -131 22 -20 12 -38 21 -40 21
-2 -1 -11 -3 -21 -6z"/>
<path d="M371 1485 c-54 -48 -73 -55 -153 -55 -55 0 -81 5 -106 20 -18 11 -41
20 -52 20 -51 0 -69 -76 -24 -100 23 -13 30 -12 67 7 85 44 199 34 257 -22 42
-41 82 -50 127 -28 40 18 55 43 55 88 0 44 -27 82 -65 94 -49 14 -68 10 -106
-24z"/>
<path d="M637 1452 c-24 -27 -21 -58 8 -80 38 -30 80 -12 90 36 9 51 -62 83
-98 44z"/>
<path d="M223 1254 c-15 -24 -15 -29 -2 -53 20 -35 43 -37 95 -11 61 30 200
30 251 0 19 -11 43 -20 53 -20 44 0 68 69 33 96 -25 19 -47 17 -88 -7 -29 -17
-52 -21 -120 -21 -66 0 -93 4 -125 21 -53 28 -76 27 -97 -5z"/>
</g>
</svg>

